<svg xmlns="http://www.w3.org/2000/svg" viewBox="0 0 720 420" role="img" aria-labelledby="title desc">
  <title id="title">Factory Production and Assembly Line</title>
  <desc id="desc">AXDCARE OEM ODM medical device factory production placeholder illustration.</desc>
  <defs>
    <linearGradient id="bg" x1="0" x2="1" y1="0" y2="1">
      <stop offset="0" stop-color="#f8fbff"/>
      <stop offset="1" stop-color="#e8f2ff"/>
    </linearGradient>
    <linearGradient id="blue" x1="0" x2="1">
      <stop offset="0" stop-color="#5b63a7"/>
      <stop offset="1" stop-color="#0066cc"/>
    </linearGradient>
  </defs>
  <rect width="720" height="420" rx="28" fill="url(#bg)"/>
  <path d="M60 310h600" stroke="#d5e2f3" stroke-width="2"/>
  <rect x="88" y="92" width="544" height="170" rx="20" fill="#fff" stroke="#d7e1ef"/>
  <rect x="128" y="126" width="94" height="78" rx="10" fill="#eef4fb" stroke="#cfdced"/>
  <rect x="252" y="126" width="94" height="78" rx="10" fill="#eef4fb" stroke="#cfdced"/>
  <rect x="376" y="126" width="94" height="78" rx="10" fill="#eef4fb" stroke="#cfdced"/>
  <rect x="500" y="126" width="94" height="78" rx="10" fill="#eef4fb" stroke="#cfdced"/>
  <path d="M128 236h466" stroke="#5b63a7" stroke-width="16" stroke-linecap="round"/>
  <circle cx="156" cy="236" r="18" fill="#fff" stroke="#5b63a7" stroke-width="8"/>
  <circle cx="300" cy="236" r="18" fill="#fff" stroke="#5b63a7" stroke-width="8"/>
  <circle cx="444" cy="236" r="18" fill="#fff" stroke="#5b63a7" stroke-width="8"/>
  <circle cx="568" cy="236" r="18" fill="#fff" stroke="#5b63a7" stroke-width="8"/>
  <rect x="120" y="326" width="150" height="38" rx="19" fill="url(#blue)"/>
  <text x="195" y="350" text-anchor="middle" font-family="Arial, sans-serif" font-size="17" font-weight="700" fill="#fff">Factory Production</text>
  <rect x="300" y="326" width="142" height="38" rx="19" fill="#ffffff" stroke="#cbd8ea"/>
  <text x="371" y="350" text-anchor="middle" font-family="Arial, sans-serif" font-size="17" font-weight="700" fill="#263a63">Assembly Line</text>
</svg>
