<svg xmlns="http://www.w3.org/2000/svg" viewBox="0 0 920 620" role="img" aria-labelledby="title desc">
  <title id="title">Blood pressure monitor technology illustration</title>
  <desc id="desc">A medical device technology visual with a blood pressure monitor, cuff and signal analysis interface.</desc>
  <defs>
    <linearGradient id="bg" x1="0" y1="0" x2="1" y2="1">
      <stop offset="0" stop-color="#f8fbff"/>
      <stop offset="1" stop-color="#e9effb"/>
    </linearGradient>
    <linearGradient id="brand" x1="0" y1="0" x2="1" y2="1">
      <stop offset="0" stop-color="#6d76c8"/>
      <stop offset="1" stop-color="#3f4a9a"/>
    </linearGradient>
    <filter id="shadow" x="-20%" y="-20%" width="140%" height="140%">
      <feDropShadow dx="0" dy="24" stdDeviation="22" flood-color="#202b54" flood-opacity=".18"/>
    </filter>
  </defs>
  <rect width="920" height="620" rx="34" fill="url(#bg)"/>
  <circle cx="690" cy="150" r="230" fill="#fff" opacity=".68"/>
  <circle cx="718" cy="152" r="150" fill="none" stroke="#cfd7f2" stroke-width="3"/>
  <path d="M118 438c148-64 246-62 356 4 114 69 235 72 358 5" fill="none" stroke="#d8e1f6" stroke-width="10" stroke-linecap="round"/>
  <g filter="url(#shadow)">
    <rect x="248" y="154" width="276" height="318" rx="44" fill="#ffffff" stroke="#d8deec" stroke-width="4"/>
    <rect x="292" y="202" width="188" height="150" rx="20" fill="#171d2d"/>
    <rect x="310" y="222" width="152" height="108" rx="10" fill="#eef4fb"/>
    <text x="330" y="275" font-family="Arial, sans-serif" font-size="56" font-weight="700" fill="#0a1023">120</text>
    <text x="330" y="325" font-family="Arial, sans-serif" font-size="56" font-weight="700" fill="#0a1023">80</text>
    <text x="424" y="274" font-family="Arial, sans-serif" font-size="20" font-weight="700" fill="#4a5367">SYS</text>
    <text x="424" y="323" font-family="Arial, sans-serif" font-size="20" font-weight="700" fill="#4a5367">DIA</text>
    <rect x="292" y="386" width="74" height="42" rx="21" fill="#f6f8fe" stroke="#d7deef"/>
    <rect x="386" y="386" width="94" height="42" rx="21" fill="#f6f8fe" stroke="#d7deef"/>
    <text x="313" y="413" font-family="Arial, sans-serif" font-size="15" font-weight="700" fill="#4a5367">MEM</text>
    <text x="405" y="412" font-family="Arial, sans-serif" font-size="14" font-weight="700" fill="#4a5367">START</text>
  </g>
  <g filter="url(#shadow)">
    <path d="M132 267c0-55 45-100 100-100h40v94h-42c-16 0-29 13-29 29v130c0 30-24 54-54 54h-15z" fill="#e3e8f4" stroke="#c8d1e6" stroke-width="4"/>
    <path d="M160 230h92" stroke="#717b96" stroke-width="12" stroke-linecap="round"/>
    <path d="M158 314h88" stroke="#717b96" stroke-width="12" stroke-linecap="round"/>
    <path d="M158 398h64" stroke="#717b96" stroke-width="12" stroke-linecap="round"/>
  </g>
  <g transform="translate(584 222)">
    <rect width="220" height="170" rx="24" fill="#fff" stroke="#dfe5f2" stroke-width="3"/>
    <text x="28" y="43" font-family="Arial, sans-serif" font-size="19" font-weight="700" fill="#3f4a9a">Signal Analysis</text>
    <path d="M28 96h22l16-38 24 78 24-54 18 24h60" fill="none" stroke="#00b8a9" stroke-width="6" stroke-linecap="round" stroke-linejoin="round"/>
    <rect x="28" y="128" width="68" height="12" rx="6" fill="#dfe5f2"/>
    <rect x="108" y="128" width="64" height="12" rx="6" fill="#5b63a7"/>
  </g>
  <g fill="url(#brand)">
    <circle cx="650" cy="116" r="14"/>
    <circle cx="720" cy="98" r="10"/>
    <circle cx="778" cy="152" r="12"/>
  </g>
</svg>
